<svg width="256" height="256" viewBox="0 0 256 256" fill="none" xmlns="http://www.w3.org/2000/svg">
  <rect width="256" height="256" rx="64" fill="#F8F7F1"/>
  <rect x="16" y="16" width="224" height="224" rx="48" fill="url(#paint0_linear_1_2)"/>
  <path d="M128 47C120.5 63 116.8 76.1 116.8 86.2C116.8 98.3 121.5 109.1 128 117.7C134.5 109.1 139.2 98.3 139.2 86.2C139.2 76.1 135.5 63 128 47Z" fill="#7C8E2A"/>
  <path d="M154.6 70.9C142.6 81.6 136.6 92.7 136.6 104.1C136.6 114.9 141.1 125.3 147.3 133.4C161.9 123.5 170.6 109 170.6 92.5C170.6 86.1 165.1 76.9 154.6 70.9Z" fill="#7C8E2A"/>
  <path d="M101.4 70.9C111.9 76.9 117.4 86.1 117.4 92.5C117.4 109 108.7 123.5 94.1 133.4C87.9 125.3 83.4 114.9 83.4 104.1C83.4 92.7 89.4 81.6 101.4 70.9Z" fill="#7C8E2A"/>
  <path d="M128 110.4C111.6 123.6 102.2 138.8 102.2 155.9C102.2 174.3 113.1 191.3 128 202.5C142.9 191.3 153.8 174.3 153.8 155.9C153.8 138.8 144.4 123.6 128 110.4Z" fill="#7C8E2A"/>
  <path d="M79.6 127.8C75.1 138.8 72.8 149.7 72.8 160.5C72.8 186.5 86.5 210.4 108.9 223C109.6 204.8 105.3 188.2 96 173.1C88.8 161.5 82.8 147.1 79.6 127.8Z" fill="#7C8E2A"/>
  <path d="M176.4 127.8C179.6 147.1 173.6 161.5 166.4 173.1C157.1 188.2 152.8 204.8 153.5 223C175.9 210.4 189.6 186.5 189.6 160.5C189.6 149.7 187.3 138.8 182.8 127.8H176.4Z" fill="#7C8E2A"/>
  <path d="M128 121V204" stroke="#F8F7F1" stroke-width="8" stroke-linecap="round"/>
  <circle cx="128" cy="215" r="7" fill="#B99B3B"/>
  <defs>
    <linearGradient id="paint0_linear_1_2" x1="128" y1="16" x2="128" y2="240" gradientUnits="userSpaceOnUse">
      <stop stop-color="#FFFFFF"/>
      <stop offset="1" stop-color="#F1F0E6"/>
    </linearGradient>
  </defs>
</svg>
